<?xml version="1.0" encoding="utf-8"?>
<!-- Generator: Adobe Illustrator 22.1.0, SVG Export Plug-In . SVG Version: 6.00 Build 0)  -->
<svg version="1.1" id="Calque_1" xmlns="http://www.w3.org/2000/svg" xmlns:xlink="http://www.w3.org/1999/xlink" x="0px" y="0px"
	 viewBox="0 0 6 6.2" style="enable-background:new 0 0 6 6.2;" xml:space="preserve">
<style type="text/css">
	.st0{fill:#FFFFFF;}
</style>
<g>
	<rect x="-302.8" y="-208.2" class="st0" width="10" height="10"/>
	<path d="M-293.3-207.7v9h-9v-9H-293.3 M-292.3-208.7h-11v11h11V-208.7L-292.3-208.7z"/>
</g>
<g>
	<rect x="-177.8" y="-71.2" class="st0" width="5" height="5"/>
	<path d="M-173.3-70.7v4h-4v-4H-173.3 M-172.3-71.7h-6v6h6V-71.7L-172.3-71.7z"/>
</g>
<g>
	<g>
		<path d="M8.4-25.2L9-25.7l2.2,2.4v-5.3H12v5.3l2.2-2.4l0.6,0.5L11.6-22h0L8.4-25.2z"/>
	</g>
</g>
<path d="M0,3.1l0.5-0.5l2.1,2.3V0h0.8v4.9l2.1-2.3L6,3.1L3,6.2h0L0,3.1z"/>
<path d="M63.3-3c0-0.3,0.2-0.4,0.4-0.4c0.3,0,0.4,0.1,0.4,0.4c0,0.3-0.2,0.5-0.4,0.5C63.5-2.6,63.3-2.7,63.3-3z M63.6-4.4
	c0-0.3,0.2-0.4,0.4-0.4c0.3,0,0.4,0.1,0.4,0.4c0,0.3-0.2,0.5-0.4,0.5C63.8-3.9,63.6-4.1,63.6-4.4z M63.6-1.7c0-0.3,0.2-0.4,0.4-0.4
	c0.3,0,0.4,0.2,0.4,0.4c0,0.3-0.2,0.4-0.4,0.4C63.8-1.3,63.6-1.4,63.6-1.7z M64.5-5.3c0-0.3,0.2-0.4,0.4-0.4c0.2,0,0.4,0.1,0.4,0.4
	c0,0.3-0.2,0.4-0.4,0.4C64.7-4.9,64.5-5,64.5-5.3z M64.5-0.7c0-0.3,0.2-0.4,0.4-0.4c0.2,0,0.4,0.1,0.4,0.4c0,0.3-0.2,0.5-0.4,0.5
	C64.7-0.3,64.5-0.4,64.5-0.7z M65.8-5.6c0-0.3,0.2-0.4,0.4-0.4c0.3,0,0.4,0.2,0.4,0.4c0,0.3-0.2,0.5-0.4,0.5
	C66-5.2,65.8-5.4,65.8-5.6z M65.8-0.4c0-0.3,0.2-0.4,0.4-0.4c0.3,0,0.4,0.2,0.4,0.4c0,0.3-0.2,0.5-0.4,0.5C66,0,65.8-0.1,65.8-0.4z
	 M67.1-5.3c0-0.3,0.2-0.4,0.4-0.4c0.2,0,0.4,0.2,0.4,0.4c0,0.3-0.2,0.4-0.4,0.4C67.3-4.9,67.1-5,67.1-5.3z M67.1-0.7
	c0-0.3,0.2-0.4,0.4-0.4c0.2,0,0.4,0.1,0.4,0.4c0,0.3-0.2,0.5-0.4,0.5C67.3-0.3,67.1-0.4,67.1-0.7z M68-4.3c0-0.3,0.2-0.4,0.4-0.4
	c0.2,0,0.4,0.2,0.4,0.4c0,0.3-0.2,0.4-0.4,0.4C68.2-3.9,68-4.1,68-4.3z M68-1.7c0-0.3,0.2-0.4,0.4-0.4c0.2,0,0.4,0.2,0.4,0.4
	c0,0.3-0.2,0.4-0.4,0.4C68.2-1.3,68-1.4,68-1.7z M68.3-3c0-0.3,0.2-0.4,0.4-0.4c0.2,0,0.4,0.1,0.4,0.4c0,0.3-0.2,0.5-0.4,0.5
	C68.5-2.6,68.3-2.7,68.3-3z"/>
</svg>
